<?xml version="1.0" standalone="no"?>
<!DOCTYPE svg PUBLIC "-//W3C//DTD SVG 20010904//EN"
 "http://www.w3.org/TR/2001/REC-SVG-20010904/DTD/svg10.dtd">
<svg version="1.0" xmlns="http://www.w3.org/2000/svg"
 width="192.000000pt" height="192.000000pt" viewBox="0 0 192.000000 192.000000"
 preserveAspectRatio="xMidYMid meet">
<metadata>
Created by potrace 1.11, written by Peter Selinger 2001-2013
</metadata>
<g transform="translate(0.000000,192.000000) scale(0.100000,-0.100000)"
fill="#000000" stroke="none">
<path d="M793 1286 c-185 -35 -310 -102 -378 -200 -66 -97 -57 -189 28 -282
55 -60 169 -123 272 -149 266 -68 589 -13 740 126 65 60 89 110 90 185 0 54
-4 67 -35 112 -62 91 -163 153 -316 193 -102 27 -300 34 -401 15z m98 -289
c43 -12 9 -107 -39 -107 -35 0 -39 17 -23 83 17 68 34 91 39 53 2 -14 12 -26
23 -29z m399 -22 c-7 -25 -10 -51 -6 -60 7 -20 -23 -33 -34 -15 -6 10 -12 11
-22 3 -7 -7 -38 -11 -68 -9 l-55 2 3 43 c3 55 -18 52 -34 -5 -10 -35 -14 -39
-45 -41 -22 -1 -39 4 -46 14 -12 15 -14 15 -28 -3 -8 -10 -15 -14 -15 -8 0 6
9 19 19 28 11 10 17 25 14 37 -7 24 -19 24 -32 2 -6 -10 -11 -13 -11 -7 0 18
38 47 55 41 8 -4 15 -14 15 -22 0 -9 5 -13 11 -9 6 3 9 15 6 25 -3 11 -1 19 4
19 14 0 10 -32 -6 -50 -9 -10 -13 -25 -9 -34 11 -30 32 -16 43 30 11 44 12 45
49 42 l37 -3 -3 -44 c-4 -49 17 -55 29 -7 11 39 28 56 56 56 20 0 24 -4 21
-22 -2 -13 -13 -27 -25 -33 -23 -10 -30 -29 -15 -39 19 -11 52 26 58 65 7 43
35 82 42 60 2 -7 -1 -32 -8 -56z m-676 -20 c-4 -30 -3 -45 5 -45 6 0 16 20 22
45 7 28 17 45 26 45 15 0 14 -14 -3 -72 -8 -26 23 -23 37 3 6 12 9 32 6 45 -2
13 0 24 4 24 13 0 11 -45 -3 -74 -12 -29 -24 -33 -85 -34 -38 -1 -43 2 -43 22
0 46 13 86 27 86 11 0 13 -9 7 -45z m194 23 c-2 -13 -13 -27 -26 -33 -27 -12
-25 -41 3 -37 15 3 17 1 9 -8 -7 -6 -22 -10 -35 -8 -52 7 -26 108 27 108 21 0
25 -4 22 -22z"/>
<path d="M856 959 c-9 -45 -8 -49 9 -49 16 0 30 42 21 65 -9 25 -23 17 -30
-16z"/>
<path d="M1196 974 c-4 -9 -4 -19 -1 -22 6 -6 35 18 35 29 0 16 -28 10 -34 -7z"/>
<path d="M770 970 c-9 -16 -8 -20 5 -20 8 0 15 2 15 4 0 2 3 11 6 20 9 23 -13
20 -26 -4z"/>
</g>
</svg>
